# xmcd
#
# Track frame offsets:
#	150
#	25212
#	34137
#	76702
#	87342
#
# Disc length: 1529 seconds
# Revision: 0
# Processed by: cddbd v1.5.2PL0 Copyright (c) Steve Scherf et al.
# Submitted via: dBpowerAMP V12.0
#
DISCID=2d05f705
DTITLE=Various Artist - Ω γλυκύ μου έαρ
DYEAR=1999
DGENRE=Εκκλησιαστικά
TTITLE0=Γλυκερία - Η ζωή εν τάφω
TTITLE1=Γλυκερία - Άξιον εστί
TTITLE2=Γλυκερία - Ω γλυκύ μου έαρ
TTITLE3=Γλυκερία - Ο Νυμφώνας
TTITLE4=Ορχηστρικό - Ω γλυκύ μου έαρ
EXTD=
EXTT0=
EXTT1=
EXTT2=
EXTT3=
EXTT4=
PLAYORDER=
